<svg xmlns="http://www.w3.org/2000/svg" viewBox="0 0 630 630">
  <rect width="630" height="630" fill="#f7df1e"/>
  <path d="m423.2 492.19c12.69 20.72 29.2 35.95 58.4 35.95 24.53 0 40.2-12.26 40.2-29.2 0-20.3-16.1-27.49-43.1-39.3l-14.8-6.35c-42.72-18.2-71.1-41-71.1-89.2 0-44.9 33.8-78.2 86.6-78.2 37.64 0 64.7 13.1 84.2 47.4l-46.1 29.6c-10.15-18.2-21.1-25.4-38.1-25.4-17.35 0-28.3 10.5-28.3 25.4 0 18.7 16.1 26.6 42.3 37.4l15.7 6.35c50.07 20.2 73.2 45.4 73.2 89.5 0 51.7-37.7 83.5-90.5 83.5-45.76 0-77.4-20.7-94.9-53.4l46.3-29.5zm-153.1 0c12.27 19.4 29.7 35.95 56.1 35.95 24.1 0 38.1-12.7 38.1-31.4v-205.8h66v208c0 47.8-31.7 76.2-79.5 76.2-40.2 0-72-24.6-84.5-54.6l47.8-29.6z" fill="#000"/>
</svg>
